<svg xmlns="http://www.w3.org/2000/svg" width="36" height="36" fill="none" viewBox="0 0 36 36"><path fill="#fff" d="M23.25 29.8875L16.875 23.5125L18.975 21.4125L23.25 25.6875L31.725 17.2125L33.825 19.3125L23.25 29.8875ZM31.5 15H28.5V7.5H25.5V12H10.5V7.5H7.5V28.5H16.5V31.5H7.5C6.675 31.5 5.9685 31.206 5.3805 30.618C4.7925 30.03 4.499 29.324 4.5 28.5V7.5C4.5 6.675 4.794 5.9685 5.382 5.3805C5.97 4.7925 6.676 4.499 7.5 4.5H13.7625C14.0375 3.625 14.575 2.906 15.375 2.343C16.175 1.78 17.05 1.499 18 1.5C19 1.5 19.894 1.7815 20.682 2.3445C21.47 2.9075 22.001 3.626 22.275 4.5H28.5C29.325 4.5 30.0315 4.794 30.6195 5.382C31.2075 5.97 31.501 6.676 31.5 7.5V15ZM18 7.5C18.425 7.5 18.7815 7.356 19.0695 7.068C19.3575 6.78 19.501 6.424 19.5 6C19.5 5.575 19.356 5.2185 19.068 4.9305C18.78 4.6425 18.424 4.499 18 4.5C17.575 4.5 17.2185 4.644 16.9305 4.932C16.6425 5.22 16.499 5.576 16.5 6C16.5 6.425 16.644 6.7815 16.932 7.0695C17.22 7.3575 17.576 7.501 18 7.5Z"/></svg>