<svg xmlns="http://www.w3.org/2000/svg" width="36" height="36" viewBox="0 0 36 36" fill="none">
  <path d="M29.85 18.99C29.6095 18.7163 29.4769 18.3644 29.4769 18C29.4769 17.6356 29.6095 17.2837 29.85 17.01L31.77 14.85C31.9816 14.614 32.113 14.3171 32.1453 14.0018C32.1777 13.6865 32.1093 13.369 31.95 13.095L28.95 7.905C28.7924 7.63128 28.5524 7.41431 28.2642 7.28503C27.976 7.15574 27.6543 7.12074 27.345 7.185L24.525 7.755C24.1662 7.82914 23.7926 7.76938 23.4749 7.587C23.1571 7.40462 22.917 7.11222 22.8 6.765L21.885 4.02C21.7844 3.72207 21.5927 3.4633 21.337 3.28026C21.0813 3.09723 20.7745 2.99919 20.46 3H14.46C14.1329 2.98293 13.8092 3.07339 13.5384 3.25757C13.2675 3.44175 13.0644 3.70953 12.96 4.02L12.12 6.765C12.003 7.11222 11.763 7.40462 11.4452 7.587C11.1274 7.76938 10.7539 7.82914 10.395 7.755L7.50003 7.185C7.20685 7.14357 6.90798 7.18983 6.64105 7.31796C6.37412 7.44608 6.15108 7.65034 6.00003 7.905L3.00003 13.095C2.83677 13.366 2.76336 13.6816 2.7903 13.9968C2.81724 14.312 2.94315 14.6107 3.15003 14.85L5.05503 17.01C5.29551 17.2837 5.42813 17.6356 5.42813 18C5.42813 18.3644 5.29551 18.7163 5.05503 18.99L3.15003 21.15C2.94315 21.3893 2.81724 21.688 2.7903 22.0032C2.76336 22.3184 2.83677 22.634 3.00003 22.905L6.00003 28.095C6.15767 28.3687 6.39771 28.5857 6.68591 28.715C6.97411 28.8443 7.29576 28.8793 7.60503 28.815L10.425 28.245C10.7839 28.1709 11.1574 28.2306 11.4752 28.413C11.793 28.5954 12.033 28.8878 12.15 29.235L13.065 31.98C13.1694 32.2905 13.3725 32.5582 13.6434 32.7424C13.9142 32.9266 14.2379 33.0171 14.565 33H20.565C20.8795 33.0008 21.1863 32.9028 21.442 32.7197C21.6977 32.5367 21.8894 32.2779 21.99 31.98L22.905 29.235C23.022 28.8878 23.2621 28.5954 23.5799 28.413C23.8976 28.2306 24.2712 28.1709 24.63 28.245L27.45 28.815C27.7593 28.8793 28.081 28.8443 28.3692 28.715C28.6574 28.5857 28.8974 28.3687 29.055 28.095L32.055 22.905C32.2143 22.631 32.2827 22.3135 32.2503 21.9982C32.218 21.6829 32.0866 21.386 31.875 21.15L29.85 18.99ZM27.615 21L28.815 22.35L26.895 25.68L25.125 25.32C24.0447 25.0992 22.9209 25.2827 21.9669 25.8357C21.013 26.3887 20.2952 27.2728 19.95 28.32L19.38 30H15.54L15 28.29C14.6548 27.2428 13.9371 26.3587 12.9831 25.8057C12.0292 25.2527 10.9054 25.0692 9.82503 25.29L8.05503 25.65L6.10503 22.335L7.30503 20.985C8.04296 20.16 8.45093 19.0919 8.45093 17.985C8.45093 16.8781 8.04296 15.81 7.30503 14.985L6.10503 13.635L8.02503 10.335L9.79503 10.695C10.8754 10.9158 11.9992 10.7323 12.9531 10.1793C13.9071 9.62627 14.6248 8.74224 14.97 7.695L15.54 6H19.38L19.95 7.71C20.2952 8.75724 21.013 9.64127 21.9669 10.1943C22.9209 10.7473 24.0447 10.9308 25.125 10.71L26.895 10.35L28.815 13.68L27.615 15.03C26.8854 15.8531 26.4825 16.915 26.4825 18.015C26.4825 19.115 26.8854 20.1769 27.615 21ZM17.46 12C16.2733 12 15.1133 12.3519 14.1266 13.0112C13.1399 13.6705 12.3709 14.6075 11.9167 15.7039C11.4626 16.8003 11.3438 18.0067 11.5753 19.1705C11.8068 20.3344 12.3783 21.4035 13.2174 22.2426C14.0565 23.0818 15.1256 23.6532 16.2895 23.8847C17.4534 24.1162 18.6598 23.9974 19.7561 23.5433C20.8525 23.0892 21.7896 22.3201 22.4488 21.3334C23.1081 20.3467 23.46 19.1867 23.46 18C23.46 16.4087 22.8279 14.8826 21.7027 13.7574C20.5774 12.6321 19.0513 12 17.46 12ZM17.46 21C16.8667 21 16.2867 20.8241 15.7933 20.4944C15.3 20.1648 14.9155 19.6962 14.6884 19.148C14.4613 18.5999 14.4019 17.9967 14.5177 17.4147C14.6334 16.8328 14.9191 16.2982 15.3387 15.8787C15.7583 15.4591 16.2928 15.1734 16.8748 15.0576C17.4567 14.9419 18.0599 15.0013 18.6081 15.2284C19.1563 15.4554 19.6248 15.8399 19.9544 16.3333C20.2841 16.8266 20.46 17.4067 20.46 18C20.46 18.7956 20.144 19.5587 19.5813 20.1213C19.0187 20.6839 18.2557 21 17.46 21Z" fill="white" />
</svg>